<svg fill="none" height="48" viewBox="0 0 182 48" width="182" xmlns="http://www.w3.org/2000/svg" xmlns:xlink="http://www.w3.org/1999/xlink"><clipPath id="a"><path d="m0 2h44v44h-44z"/></clipPath><g clip-path="url(#a)" fill="#ff4405"><path d="m27.2694 4.12169-4.2208-1.13097-3.5569 13.27468-3.2113-11.98447-4.2209 1.13097 3.4696 12.9483-8.64186-8.64179-3.08986 3.08989 9.47902 9.4791-11.80461-3.1631-1.13097 4.2208 12.89798 3.456c-.1476-.6369-.2257-1.3005-.2257-1.9824 0-4.8267 3.9127-8.7395 8.7394-8.7395s8.7395 3.9128 8.7395 8.7395c0 .6775-.0772 1.337-.223 1.9702l11.7219 3.1408 1.1309-4.2207-12.9493-3.4698 11.8054-3.1633-1.131-4.2208-12.9488 3.4696 8.6419-8.64177-3.0899-3.08986-9.3475 9.34753z"/><path d="m30.2567 26.838c-.3619 1.53-1.1259 2.9044-2.1742 4.0055l8.492 8.4922 3.0899-3.0899z"/><path d="m27.9968 30.9323c-1.0609 1.0836-2.4017 1.8922-3.9052 2.309l3.0901 11.5322 4.2208-1.131z"/><path d="m23.934 33.2835c-.6976.1793-1.4287.2746-2.1822.2746-.8072 0-1.5889-.1095-2.331-.3144l-3.0929 11.5429 4.2208 1.1309z"/><path d="m19.2715 33.2012c-1.4805-.4374-2.7974-1.2564-3.8367-2.3431l-8.51288 8.513 3.08988 3.0898z"/><path d="m15.3647 30.7829c-1.0215-1.0936-1.7655-2.4496-2.1196-3.9559l-11.76024 3.1511 1.13096 4.2208z"/></g><g fill="#101828"><path d="m68.52 12.9092v15.21l-9.75-15.21h-3.9v21h3.9v-15.09l9.75 15.09h3.9v-21z"/><path d="m74.1773 16.8392h4.02v-3.93h-4.02zm.06 17.07v-15h3.9v15z"/><path d="m94.9174 26.4092c0-5.19-3.69-7.65-7.59-7.68-3.93-.03-7.56 2.49-7.56 7.68s3.63 7.71 7.56 7.68c3.57-.03 6.03-1.68 7.17-4.41l-3.03-1.26c-.93 1.86-2.4 2.52-4.14 2.55-1.5.03-3.21-.69-3.57-3.36h11.07c.06-.39.09-.78.09-1.2zm-7.59-4.59c1.5.03 3.03.84 3.51 3h-7.02c.51-2.19 2.04-3.03 3.51-3z"/><path d="m103.931 21.6992v-2.97h-2.46v-4.02l-3.9005 1.2v2.82h-2.46v2.97h2.46v7.77c0 2.94.24 4.44 4.8005 4.44h1.05v-3.42h-1.05c-.72 0-.9-.12-.9-1.02v-7.77z"/><path d="m109.726 30.6392 8.28-8.46v-3.27h-12.42v3.27h8.04l-8.28 8.46v3.27h12.75v-3.27z"/><path d="m119.494 29.6792 3.93-.6c.27 1.5 2.04 2.07 3.12 2.07 1.11 0 3.03-.24 3.03-2.04 0-3.51-9.63.87-9.63-5.85 0-4.32 5.01-4.56 6.6-4.56 1.5 0 5.85.24 6.75 3.72l-3.72.78c-.33-1.59-2.01-1.89-2.91-1.89s-2.82.21-2.82 1.95c0 3.48 9.63-.96 9.63 5.85 0 4.59-5.28 4.98-6.93 4.98-1.5 0-6.27-.39-7.05-4.41z"/><path d="m138.54 26.4092c0 3.66 1.95 4.77 3.99 4.74 1.83-.03 3.09-.78 3.84-2.88l3.21 1.56c-1.17 3.06-4.02 4.23-7.05 4.26-3.93.03-7.89-2.49-7.89-7.68s3.96-7.71 7.89-7.68c3.03.03 5.88 1.2 7.05 4.26l-3.21 1.56c-.75-2.1-2.01-2.85-3.84-2.88-2.04-.03-3.99 1.08-3.99 4.74z"/><path d="m160.05 18.6692c-2.01 0-3.84 1.05-5.01 3.3v-9.06h-3.9v21h3.9v-5.31c0-6.87 2.85-7.44 3.9-7.44 1.68 0 1.92 1.74 1.92 4.29v8.46h3.9v-8.46c0-3.18-.51-6.78-4.71-6.78z"/><path d="m181.226 26.4092c0-5.19-3.69-7.65-7.59-7.68-3.93-.03-7.56 2.49-7.56 7.68s3.63 7.71 7.56 7.68c3.57-.03 6.03-1.68 7.17-4.41l-3.03-1.26c-.93 1.86-2.4 2.52-4.14 2.55-1.5.03-3.21-.69-3.57-3.36h11.07c.06-.39.09-.78.09-1.2zm-7.59-4.59c1.5.03 3.03.84 3.51 3h-7.02c.51-2.19 2.04-3.03 3.51-3z"/></g></svg>